<svg xmlns="http://www.w3.org/2000/svg" xmlns:xlink="http://www.w3.org/1999/xlink" width="723" height="896" viewBox="0 0 723 896">
  <defs>
    <clipPath id="clip-iPhone_XR_XS_Max_1">
      <rect width="723" height="896"/>
    </clipPath>
  </defs>
  <g id="iPhone_XR_XS_Max_1" data-name="iPhone XR/XS Max – 1" clip-path="url(#clip-iPhone_XR_XS_Max_1)">
    <rect width="723" height="896" fill="#fff"/>
    <path id="Path_5" data-name="Path 5" d="M1129.063,652.117s53.518,170.913-122.574,67.329-55.676-12.887-148.47-29.72-143.291,2.1-203.715,15.908-82.352-134.606-143.291-81.141c-183,160.555-549.358-97.262-549.358-97.262l-18.626-40.856L448.6,467.806l726.426,11.142,45.235,71.5V689.727Z" transform="translate(-397.137 -583.269)" fill="#1e559f"/>
    <path id="Path_7" data-name="Path 7" d="M1159.4,442.249s-15.538,32.8-70.782-20.717S873.335,520.012,831.387,547.56c-62.417,40.991-133.1,22.474-196.809,10.358-50.319-9.569-93.691-19.813-143.291,39.707C379.071,732.284-38.345,684.19-38.345,684.19l-18.626,40.856L448.6,743.616l726.426-11.142,45.235-71.5V521.7Z" transform="translate(-379.137 227.384)" fill="#1e559f"/>
    <path id="Path_6" data-name="Path 6" d="M791.635,973.512S596.92,841.36,404.06,885.923c-75.6,17.469-117.887,100.012-164.778,113.613C166.558,1020.629,94.264,906.183-21.4,973.512c-113.12-29.2-31.075-163.88-31.075-163.88l7.768-55.861L190.8,712.281s287.436-6.147,298.563,0,278.164,36.88,283.727,41.49,92.721,116.786,92.721,116.786,12.981,61.466,0,66.076S791.635,973.512,791.635,973.512Z" transform="translate(-27 -863.358)" fill="#17387b" opacity="0.8"/>
    <path id="Path_8" data-name="Path 8" d="M791.635,705.39s-83.019,31.046-302.271,61.9c-127.753,12.991-281.893,2.229-318.147-61.9S90.785,604.612,19.293,624C-93.827,654.67-74.382,781.264-74.382,781.264l29.671,154.979L190.8,979.831s287.436,6.457,298.563,0,278.164-38.745,283.727-43.588,92.721-122.691,92.721-122.691,12.981-64.574,0-69.418S791.635,705.39,791.635,705.39Z" transform="translate(-9 26.646)" fill="#17387b" opacity="0.8"/>
  </g>
</svg>
