<svg xmlns="http://www.w3.org/2000/svg" xmlns:xlink="http://www.w3.org/1999/xlink" width="723" height="385" viewBox="0 0 723 385">
  <defs>
    <clipPath id="clip-iPhone_XR_XS_Max_2">
      <rect width="723" height="385"/>
    </clipPath>
  </defs>
  <g id="iPhone_XR_XS_Max_2" data-name="iPhone XR/XS Max – 2" clip-path="url(#clip-iPhone_XR_XS_Max_2)">
    <rect width="723" height="385" fill="#fff"/>
    <path id="Path_5" data-name="Path 5" d="M1221.367,643.548s57.683,162.968-132.114,64.2-60.009-12.288-160.025-28.338-154.443,2-219.569,15.169S620.9,566.23,555.217,617.21C357.977,770.3-36.9,524.47-36.9,524.47l-20.076-38.956,544.918-17.707,782.961,10.624,48.756,68.174V679.41Z" transform="translate(-391.858 -583.25)" fill="#1e559f"/>
    <path id="Path_7" data-name="Path 7" d="M1446.1,435.4s-19.2,25.787-87.465-16.287c-34-20.953,16.478,118.714-44.577,45.239s-187.008,16.662-213.029,27.534C1023.9,524.109,885.564,515.9,806.842,506.376c-62.178-7.523-103.182-14.2-278.242,90.429S-33.955,625.6-33.955,625.6L-56.971,657.72l624.732,14.6,897.641-8.76,55.9-56.208v-109.5Z" transform="translate(-530.937 -217.75)" fill="#1e559f"/>
    <path id="Path_6" data-name="Path 6" d="M859.565,956.863S649.7,833.046,441.827,874.8c-81.485,16.367-127.061,93.7-177.6,106.446-78.382,19.763-156.3-87.464-280.974-24.382-121.924-27.355-33.494-153.544-33.494-153.544l8.373-52.338,253.841-38.873s309.806-5.759,321.8,0,299.812,34.554,305.808,38.873S939.516,860.4,939.516,860.4s13.991,57.589,0,61.909S859.565,956.863,859.565,956.863Z" transform="translate(5.197 -854.728)" fill="#17387b" opacity="0.8"/>
    <path id="Path_8" data-name="Path 8" d="M996.05,686.875S965.729,839.7,877.022,716.042s-266.649-40.577-349.252,0-172.452,7.246-240.563-33.331S119.045,805.143,30.7,820.383c-139.782,24.114-34.78-7.246-34.78-7.246l-33.341,55.227L253.6,902.63s355.183,5.077,368.932,0,343.726-30.46,350.6-34.267,114.575-96.455,114.575-96.455,16.041-50.766,0-54.573S996.05,686.875,996.05,686.875Z" transform="translate(-77.965 -420.17)" fill="#17387b" opacity="0.8"/>
  </g>
</svg>
