<?xml version="1.0" encoding="utf-8"?>
<!-- Generator: Adobe Illustrator 23.0.5, SVG Export Plug-In . SVG Version: 6.00 Build 0)  -->
<svg version="1.1" id="Layer_1" xmlns="http://www.w3.org/2000/svg" xmlns:xlink="http://www.w3.org/1999/xlink" x="0px" y="0px"
	 viewBox="0 0 100 50" style="enable-background:new 0 0 100 50;" xml:space="preserve">
<style type="text/css">
	.st0{fill:none;stroke:#253570;stroke-miterlimit:10;}
	.st1{fill:none;stroke:#00AEEF;stroke-width:4;stroke-miterlimit:10;}
	.st2{fill:none;stroke:#253570;stroke-width:0.75;stroke-miterlimit:10;}
	.st3{fill:#FFFFFF;}
	.st4{fill:#253570;}
</style>
<polygon class="st0" points="49.58,6.06 60.32,13.57 71.06,21.07 49.58,21.07 28.1,21.07 38.84,13.57 "/>
<polyline class="st0" points="27.71,17.63 37.21,10.99 49.49,2.41 58.22,8.51 "/>
<path class="st1" d="M38.2,44.79"/>
<path class="st0" d="M37.08,44.79h-3.37c-1.38,0-2.5-1.01-2.5-2.24V23.31c0-1.23,1.13-2.24,2.5-2.24h31.74c1.38,0,2.5,1.01,2.5,2.24
	v19.24c0,1.23-1.13,2.24-2.5,2.24h-2.95"/>
<g>
	<line class="st2" x1="50.93" y1="17.79" x2="48.4" y2="17.79"/>
	<line class="st2" x1="50.41" y1="18.63" x2="48.92" y2="18.63"/>
	<path class="st2" d="M51.12,16.79h-2.78v-0.86c-1.49-1.17-2.09-3.03-1.55-4.53c0.44-1.22,1.49-1.8,1.82-1.97
		c0.3-0.11,1.03-0.33,1.91-0.1c0.59,0.16,0.97,0.44,1.09,0.54c0.24,0.19,1.1,0.87,1.13,2.02c0.02,0.77-0.34,1.59-0.98,2.03
		c-0.07,0.05-0.43,0.27-0.95,0.34c-0.19,0.03-0.68,0.06-1.22-0.2c-0.43-0.22-0.68-0.53-0.8-0.7"/>
</g>
<path class="st3" d="M42.52,29.96c0,0,1.35,0.73,1.74,2.55L42.52,29.96z"/>
<g>
	<path class="st4" d="M38.99,45.82l-0.01-2.59l0.69,0l0.83,1.83c0.08,0.17,0.13,0.3,0.17,0.38c0.04-0.09,0.1-0.23,0.18-0.41
		l0.83-1.8l0.62,0l0.01,2.59h-0.44l0-2.17l-1.01,2.17l-0.42,0l-1.01-2.21l0,2.21H38.99z"/>
	<path class="st4" d="M44.03,45.83l0-1.1l-1.34-1.5l0.56,0l0.69,0.78c0.13,0.15,0.25,0.29,0.35,0.44c0.1-0.14,0.23-0.29,0.38-0.46
		l0.67-0.76h0.54l-1.38,1.49l0,1.1H44.03z"/>
	<path class="st4" d="M47.62,45.83l-0.01-2.59l1.3,0c0.27,0,0.48,0.03,0.64,0.08c0.16,0.05,0.29,0.13,0.38,0.24
		c0.09,0.11,0.14,0.22,0.14,0.34c0,0.11-0.04,0.21-0.12,0.31c-0.08,0.1-0.2,0.18-0.36,0.24c0.21,0.05,0.37,0.12,0.49,0.24
		c0.11,0.11,0.17,0.24,0.17,0.39c0,0.12-0.03,0.23-0.1,0.34c-0.07,0.1-0.15,0.18-0.25,0.24s-0.23,0.1-0.38,0.13
		c-0.15,0.03-0.34,0.04-0.56,0.04L47.62,45.83z M48.08,44.33l0.75,0c0.2,0,0.35-0.01,0.44-0.03c0.12-0.03,0.21-0.07,0.26-0.13
		c0.06-0.06,0.09-0.13,0.09-0.23c0-0.09-0.03-0.16-0.08-0.23c-0.06-0.07-0.13-0.11-0.24-0.13c-0.1-0.02-0.28-0.04-0.53-0.04l-0.69,0
		L48.08,44.33z M48.08,45.52l0.87,0c0.15,0,0.25,0,0.31-0.01c0.11-0.01,0.19-0.04,0.27-0.07s0.13-0.08,0.18-0.14
		c0.05-0.06,0.07-0.14,0.07-0.22c0-0.1-0.03-0.18-0.1-0.25c-0.07-0.07-0.16-0.12-0.28-0.15c-0.12-0.03-0.29-0.04-0.51-0.04l-0.8,0
		L48.08,45.52z"/>
	<path class="st4" d="M50.96,45.83l-0.01-2.59l0.46,0l0.01,2.59L50.96,45.83z"/>
	<path class="st4" d="M52.21,45.83l-0.01-2.59l0.46,0l0,2.29l1.71,0v0.31L52.21,45.83z"/>
	<path class="st4" d="M54.91,45.84l-0.01-2.59h0.46l0.01,2.29l1.71,0l0,0.31L54.91,45.84z"/>
	<path class="st4" d="M57.48,45.01l0.43-0.03c0.02,0.13,0.07,0.24,0.14,0.32c0.07,0.08,0.19,0.15,0.35,0.2
		c0.16,0.05,0.34,0.08,0.53,0.08c0.18,0,0.33-0.02,0.46-0.06c0.13-0.04,0.23-0.09,0.3-0.16c0.07-0.07,0.1-0.14,0.1-0.22
		c0-0.08-0.03-0.15-0.1-0.21c-0.06-0.06-0.17-0.11-0.31-0.15c-0.09-0.03-0.3-0.07-0.62-0.13s-0.54-0.11-0.67-0.16
		c-0.17-0.07-0.29-0.15-0.37-0.24c-0.08-0.1-0.12-0.21-0.12-0.32c0-0.13,0.05-0.25,0.15-0.37c0.1-0.11,0.25-0.2,0.44-0.26
		c0.19-0.06,0.4-0.09,0.64-0.09c0.26,0,0.49,0.03,0.68,0.09s0.35,0.15,0.46,0.27c0.11,0.12,0.16,0.26,0.17,0.41L59.7,44
		c-0.02-0.16-0.11-0.29-0.24-0.37s-0.34-0.13-0.61-0.13c-0.28,0-0.48,0.04-0.61,0.11s-0.19,0.17-0.19,0.28
		c0,0.09,0.05,0.17,0.14,0.23c0.09,0.06,0.32,0.12,0.69,0.19s0.63,0.12,0.77,0.17c0.2,0.07,0.35,0.16,0.45,0.27s0.15,0.23,0.15,0.37
		c0,0.14-0.05,0.27-0.16,0.39s-0.26,0.22-0.46,0.28c-0.2,0.07-0.42,0.1-0.67,0.1c-0.32,0-0.58-0.04-0.79-0.1s-0.38-0.17-0.5-0.31
		C57.55,45.33,57.48,45.18,57.48,45.01z"/>
</g>
<g>
	<g>
		<g>
			<path class="st4" d="M62.45,33.98l-1.32-1.32c-0.26-0.26-0.7-0.25-0.97,0.02l-0.66,0.66c-0.04-0.02-0.09-0.05-0.13-0.07
				c-0.42-0.23-0.99-0.55-1.59-1.15c-0.6-0.6-0.92-1.18-1.16-1.6c-0.02-0.04-0.05-0.09-0.07-0.13L57,29.95l0.22-0.22
				c0.27-0.27,0.28-0.71,0.02-0.97l-1.32-1.32c-0.26-0.26-0.7-0.25-0.97,0.02l-0.37,0.37l0.01,0.01c-0.12,0.16-0.23,0.34-0.31,0.54
				c-0.07,0.19-0.12,0.37-0.14,0.55c-0.17,1.44,0.48,2.76,2.27,4.54c2.47,2.47,4.46,2.28,4.54,2.27c0.19-0.02,0.37-0.07,0.55-0.14
				c0.2-0.08,0.38-0.18,0.54-0.3l0.01,0.01l0.38-0.37C62.71,34.68,62.71,34.24,62.45,33.98z"/>
		</g>
	</g>
</g>
<g>
	<path class="st4" d="M37.1,32.89c0.14,0.15,0.34,0.23,0.54,0.23c0.2,0,0.4-0.08,0.54-0.23c0.43-0.41,1.1-0.41,1.53,0
		c0.14,0.15,0.34,0.23,0.54,0.23c0.2,0,0.4-0.08,0.54-0.23c0.43-0.41,1.1-0.41,1.53,0c0.14,0.15,0.34,0.23,0.54,0.23
		c0.2,0,0.4-0.08,0.54-0.23c0.11-0.1,0.24-0.18,0.37-0.24c-0.02-0.13-0.04-0.26-0.07-0.39c-0.17-0.72-0.58-1.26-1.05-1.82
		c-0.49-0.57-1.01-1.13-1.4-1.78c-0.41-0.71-0.72-1.47-0.92-2.26c-0.01-0.04-0.05-0.07-0.09-0.07h-0.01c-0.04,0-0.08,0.03-0.09,0.07
		c-0.21,0.79-0.52,1.55-0.92,2.26c-0.39,0.65-0.91,1.21-1.4,1.78c-0.47,0.55-0.88,1.09-1.05,1.82c-0.03,0.13-0.05,0.26-0.07,0.39
		C36.86,32.71,36.98,32.79,37.1,32.89L37.1,32.89z M37.31,32.38c0.14-0.58,0.45-1.02,0.94-1.59c0.08-0.1,0.17-0.2,0.25-0.29
		l0.02-0.02c0.21-0.24,0.42-0.49,0.63-0.74c0.04-0.05,0.1-0.08,0.17-0.07c0.06,0.01,0.12,0.05,0.14,0.11
		c0.02,0.06,0.01,0.13-0.03,0.18c-0.21,0.26-0.43,0.51-0.64,0.75l-0.02,0.02c-0.09,0.1-0.17,0.19-0.25,0.29
		c-0.45,0.53-0.74,0.93-0.86,1.44c-0.02,0.08-0.09,0.14-0.17,0.14c-0.01,0-0.03,0-0.04,0C37.34,32.58,37.28,32.48,37.31,32.38
		L37.31,32.38z"/>
	<path class="st4" d="M43.81,33.03c-0.06,0.04-0.12,0.08-0.18,0.13c-0.43,0.41-1.11,0.41-1.53,0c-0.14-0.15-0.34-0.23-0.54-0.23
		c-0.2,0-0.4,0.08-0.54,0.23c-0.43,0.41-1.1,0.41-1.53,0c-0.14-0.15-0.34-0.23-0.54-0.23c-0.2,0-0.4,0.08-0.54,0.23
		c-0.43,0.41-1.11,0.41-1.53,0c-0.06-0.05-0.12-0.09-0.18-0.13c-0.01,0.37,0.05,0.75,0.16,1.1c0.09,0.05,0.17,0.11,0.25,0.18
		c0.14,0.15,0.34,0.23,0.54,0.23s0.4-0.08,0.54-0.23c0.43-0.41,1.1-0.41,1.53,0c0.14,0.15,0.34,0.23,0.54,0.23s0.4-0.08,0.54-0.23
		c0.43-0.41,1.1-0.41,1.53,0c0.14,0.15,0.34,0.23,0.54,0.23c0.2,0,0.4-0.08,0.54-0.23c0.08-0.07,0.16-0.12,0.25-0.18
		C43.76,33.78,43.82,33.41,43.81,33.03L43.81,33.03z"/>
	<path class="st4" d="M42.87,34.9c-0.29,0-0.56-0.11-0.77-0.31c-0.14-0.15-0.34-0.23-0.54-0.23c-0.2,0-0.4,0.08-0.54,0.23
		c-0.43,0.41-1.1,0.41-1.53,0c-0.14-0.15-0.34-0.23-0.54-0.23s-0.4,0.08-0.54,0.23c-0.21,0.2-0.48,0.31-0.77,0.31
		c-0.19,0-0.37-0.04-0.53-0.14c0.27,0.52,0.67,0.97,1.16,1.3c0.58,0.4,1.27,0.62,1.98,0.62h0.01c0.71,0,1.4-0.22,1.98-0.62
		c0.49-0.33,0.88-0.78,1.16-1.3C43.23,34.85,43.05,34.9,42.87,34.9L42.87,34.9z"/>
</g>
</svg>
