<svg xmlns="http://www.w3.org/2000/svg" width="440.797" height="471" viewBox="0 0 440.797 471">
  <g id="idea" transform="translate(-16.416)">
    <path id="Path_5" data-name="Path 5" d="M283.879,494.775h0a85.807,85.807,0,0,1-63.832,0h0a23.016,23.016,0,0,1-14.455-21.364V410.126h92.741v63.285A23.016,23.016,0,0,1,283.879,494.775Z" transform="translate(-15.149 -32.842)" fill="#163172"/>
    <path id="Path_6" data-name="Path 6" d="M278.186,410.127v63.285a23.015,23.015,0,0,1-14.455,21.364h0a85.765,85.765,0,0,1-20.328,5.359,85.8,85.8,0,0,0,43.5-5.359h0a23.016,23.016,0,0,0,14.455-21.364V410.127Z" transform="translate(-18.177 -32.842)" fill="#fff"/>
    <path id="Path_7" data-name="Path 7" d="M191.4,380.589H299.741a4.9,4.9,0,0,0,4.972-4.59,175.554,175.554,0,0,1,36.725-100.348,112.858,112.858,0,0,0,24.119-69.714c0-64.3-54.192-116.378-120.86-115.924-65.8.449-119.332,52.715-119.128,116.29a112.809,112.809,0,0,0,23.314,68.305c22.579,29.614,35.954,64.765,37.544,101.37A4.9,4.9,0,0,0,191.4,380.589Z" transform="translate(-8.741 -7.208)" fill="#163172"/>
    <path id="Path_8" data-name="Path 8" d="M254.139,90.014c-3.591.025-7.143.213-10.655.539,60.8,5.662,108.339,55.159,108.339,115.385A112.858,112.858,0,0,1,327.7,275.652,175.551,175.551,0,0,0,290.98,376a4.9,4.9,0,0,1-4.972,4.59h23.176a4.9,4.9,0,0,0,4.972-4.59,175.56,175.56,0,0,1,36.724-100.348A112.86,112.86,0,0,0,375,205.938C375,141.634,320.807,89.559,254.139,90.014Z" transform="translate(-18.183 -7.208)" fill="#fff"/>
    <path id="Path_9" data-name="Path 9" d="M283.679,379.806H222.532a2.764,2.764,0,0,0-2.763,2.763v23.046h66.673V382.569A2.764,2.764,0,0,0,283.679,379.806Z" transform="translate(-16.284 -30.414)" fill="#163172"/>
    <path id="Path_10" data-name="Path 10" d="M287.465,379.806H267.053v25.809h23.176V382.569A2.764,2.764,0,0,0,287.465,379.806Z" transform="translate(-20.071 -30.414)" fill="#fff"/>
    <g id="Group_1" data-name="Group 1" transform="translate(16.416)">
      <path id="Path_11" data-name="Path 11" d="M368.969,179.544a6.813,6.813,0,1,0-13.3,2.941,106.078,106.078,0,0,1-20.19,88.382A181.426,181.426,0,0,0,297.41,373.183H285.119V358.77a9.586,9.586,0,0,0-6.046-8.894l12.739-94.762a8.181,8.181,0,0,0-11.384-8.584l-15.885,6.941L248.171,246.5a8.271,8.271,0,0,0-6.947.256l-13.573,6.991-18.374-7.312a8.181,8.181,0,0,0-11.149,8.684l5.122,38.1a6.813,6.813,0,0,0,13.505-1.816l-3.882-28.873,12.621,5.023a6.816,6.816,0,0,0,5.639-.273l14.057-7.241,16.719,7.12a6.814,6.814,0,0,0,5.4-.025l9.713-4.245-11.6,86.306H224.521L221.1,323.709a6.813,6.813,0,0,0-13.505,1.815l3.274,24.352a9.586,9.586,0,0,0-6.046,8.894v14.413H192.547c-2-36.885-15.4-72.562-38.84-103.3a105.679,105.679,0,0,1-21.92-64.2C131.6,145.759,182,96.657,244.149,96.234l.811,0c41.688,0,79.826,21.923,99.67,57.353a6.813,6.813,0,0,0,11.889-6.658C334.264,107.189,291.58,82.6,244.961,82.6l-.9,0c-69.634.475-126.111,55.709-125.895,123.125a119.207,119.207,0,0,0,24.71,72.413c22.143,29.042,34.644,62.769,36.155,97.537a11.694,11.694,0,0,0,11.781,11.126h.979v56.472a29.687,29.687,0,0,0,18.733,27.688,92.615,92.615,0,0,0,68.9,0,29.688,29.688,0,0,0,18.733-27.688V386.809h1a11.689,11.689,0,0,0,11.778-11.1,168,168,0,0,1,35.289-96.461,119.712,119.712,0,0,0,22.754-99.707ZM205.411,414.483h79.116v9.235H205.411v-9.235Zm13.033-51.664h53.049v10.364H218.444V362.82Zm66.083,23.99v14.048H205.411V386.809Zm-10.176,71.513a78.991,78.991,0,0,1-58.763,0,16.128,16.128,0,0,1-10.176-15.041v-5.937h79.116v5.937A16.13,16.13,0,0,1,274.351,458.322Z" transform="translate(-24.564 -6.615)" fill="#1a1a1a"/>
      <path id="Path_12" data-name="Path 12" d="M483.872,232.178H441.217a6.813,6.813,0,1,0,0,13.626h42.655a6.813,6.813,0,1,0,0-13.626Z" transform="translate(-49.888 -18.592)" fill="#1a1a1a"/>
      <path id="Path_13" data-name="Path 13" d="M65.885,232.178H23.229a6.813,6.813,0,0,0,0,13.626H65.885a6.813,6.813,0,1,0,0-13.626Z" transform="translate(-16.416 -18.592)" fill="#1a1a1a"/>
      <path id="Path_14" data-name="Path 14" d="M391.612,365.56a6.813,6.813,0,1,0-9.635,9.634l30.162,30.161a6.813,6.813,0,0,0,9.635-9.634Z" transform="translate(-45.53 -29.114)" fill="#1a1a1a"/>
      <path id="Path_15" data-name="Path 15" d="M116.577,109.8a6.813,6.813,0,0,0,9.635-9.634L96.051,70a6.813,6.813,0,0,0-9.635,9.634Z" transform="translate(-21.862 -5.446)" fill="#1a1a1a"/>
      <path id="Path_16" data-name="Path 16" d="M412.139,70l-30.162,30.162a6.813,6.813,0,0,0,9.635,9.634l30.162-30.161A6.813,6.813,0,0,0,412.139,70Z" transform="translate(-45.53 -5.446)" fill="#1a1a1a"/>
      <path id="Path_17" data-name="Path 17" d="M116.577,365.56,86.415,395.722a6.813,6.813,0,0,0,9.635,9.634l30.161-30.161a6.813,6.813,0,0,0-9.635-9.634Z" transform="translate(-21.862 -29.114)" fill="#1a1a1a"/>
      <path id="Path_18" data-name="Path 18" d="M255.407,56.281a6.813,6.813,0,0,0,6.813-6.813V6.813a6.813,6.813,0,0,0-13.626,0V49.468A6.814,6.814,0,0,0,255.407,56.281Z" transform="translate(-35.008)" fill="#1a1a1a"/>
    </g>
  </g>
</svg>
