<svg xmlns="http://www.w3.org/2000/svg" width="592.49" height="491.328" viewBox="0 0 592.49 491.328">
  <g id="old-typical-phone" transform="translate(10 5.458)">
    <g id="Group_2" data-name="Group 2" transform="translate(0 4.542)">
      <path id="Path_19" data-name="Path 19" d="M288.864,90.639c96.464.946,156.894-5.055,165.056,101.864H571.551C571.551,26.868,427.1,4.542,285.8,4.542S.052,26.868.052,192.5H116.77C125.8,83.546,193.2,89.7,288.864,90.639Z" transform="translate(0.527 -4.542)" fill="#163172" stroke="#000" stroke-width="20"/>
      <path id="Path_20" data-name="Path 20" d="M58.916,62.305c28.651,0,52.491,1.715,57.791-26.468a71.919,71.919,0,0,0,1.125-13.2H0C0,64.566,26.379,62.305,58.916,62.305Z" transform="translate(0 178.904)" fill="#163172" stroke="#000" stroke-width="20"/>
      <path id="Path_21" data-name="Path 21" d="M41.883,22.642h-1.1a62.944,62.944,0,0,0,1.247,13.2c5.59,25.989,29.4,24.375,57.947,24.375,32.693,0,59.194,2.149,59.194-37.57H41.883Z" transform="translate(413.321 178.904)" fill="#163172" stroke="#000" stroke-width="20"/>
      <path id="Path_22" data-name="Path 22" d="M360.084,42.446V25.788c0-7.449-8.585-7.917-19.186-7.917H323.583c-10.589,0-19.175.468-19.175,7.917V51.276H181.922V25.788c0-7.449-8.585-7.917-19.175-7.917H145.421c-10.59,0-19.175.468-19.175,7.917v31.2c-27.9,29-119.213,152.429-122.531,167.372l.045,99.715a16.723,16.723,0,0,0,16.7,16.7H465.867a16.723,16.723,0,0,0,16.7-16.7V223.86C479.285,209.351,388,85.974,360.084,56.978Zm-184.2,195.332a16.235,16.235,0,1,1,16.235-16.235A16.231,16.231,0,0,1,175.886,237.779Zm0-55.676a16.235,16.235,0,1,1,16.235-16.235A16.231,16.231,0,0,1,175.886,182.1Zm0-55.664A16.235,16.235,0,1,1,192.121,110.2,16.231,16.231,0,0,1,175.886,126.439ZM242.7,237.779a16.235,16.235,0,1,1,16.235-16.235A16.231,16.231,0,0,1,242.7,237.779Zm0-55.676a16.235,16.235,0,1,1,16.235-16.235A16.231,16.231,0,0,1,242.7,182.1Zm0-55.664A16.235,16.235,0,1,1,258.932,110.2,16.231,16.231,0,0,1,242.7,126.439Zm66.811,111.34a16.235,16.235,0,1,1,16.235-16.235A16.224,16.224,0,0,1,309.508,237.779Zm0-55.676a16.235,16.235,0,1,1,16.235-16.235A16.224,16.224,0,0,1,309.508,182.1Zm0-55.664A16.235,16.235,0,1,1,325.743,110.2,16.224,16.224,0,0,1,309.508,126.439Z" transform="translate(37.652 130.549)" fill="#163172" stroke="#000" stroke-width="20"/>
    </g>
  </g>
</svg>
