<svg id="tap" xmlns="http://www.w3.org/2000/svg" width="487.241" height="471" viewBox="0 0 487.241 471">
  <path id="Path_23" data-name="Path 23" d="M381.552,136A97.448,97.448,0,0,1,479,233.448v64.965H381.552V265.931a32.484,32.484,0,0,0-32.483-32.483H8V136Zm0,0" transform="translate(0.121 2.052)" fill="#163172"/>
  <path id="Path_24" data-name="Path 24" d="M231.4,299.138h19.85c43.851,0,79.4-31.507,79.4-70.382L290.951,88H191.7L152,228.756c0,38.875,35.552,70.382,79.4,70.382Zm0,0" transform="translate(2.294 1.328)" fill="#163172"/>
  <path id="Path_25" data-name="Path 25" d="M24,425.207a32.483,32.483,0,1,0,64.965,0C88.965,400.845,56.483,344,56.483,344S24,400.845,24,425.207Zm0,0" transform="translate(373.914 5.19)" fill="#163172"/>
  <g id="Group_3" data-name="Group 3" transform="translate(8.121 8.121)">
    <path id="Path_26" data-name="Path 26" d="M322.655,8H160.241a16.241,16.241,0,1,0,0,32.483H322.655a16.241,16.241,0,0,0,0-32.483Zm0,0" transform="translate(-5.948 -8)" fill="#163172"/>
    <path id="Path_27" data-name="Path 27" d="M256.483,40H224V88.724h32.483Zm0,0" transform="translate(-4.741 -7.517)" fill="#163172"/>
    <path id="Path_28" data-name="Path 28" d="M472.724,104H424V266.414h48.724Zm0,0" transform="translate(-424 -6.552)" fill="#163172"/>
  </g>
  <path id="Path_29" data-name="Path 29" d="M63.654,340.056c3.434,6.043,33.553,59.494,33.553,85.267a40.6,40.6,0,1,1-81.207,0c0-25.774,30.12-79.224,33.553-85.267a8.446,8.446,0,0,1,14.1,0ZM56.6,449.686a24.363,24.363,0,0,0,24.362-24.362c0-14.358-14.112-44.573-24.362-64.2-10.25,19.628-24.362,49.842-24.362,64.2A24.363,24.363,0,0,0,56.6,449.686Zm0,0" transform="translate(373.793 5.073)"/>
  <path id="Path_30" data-name="Path 30" d="M8.12,97.448H56.845a8.121,8.121,0,0,1,8.121,8.121v24.362H174.1l12.074-42.8A8.128,8.128,0,0,1,194,81.207h25.262V48.724H162.414a24.362,24.362,0,1,1,0-48.724H324.828a24.362,24.362,0,0,1,0,48.724H267.983V81.207h25.262a8.127,8.127,0,0,1,7.823,5.92l12.074,42.8h68.53A105.691,105.691,0,0,1,487.241,235.5v64.966a8.121,8.121,0,0,1-8.121,8.121H381.672a8.121,8.121,0,0,1-8.121-8.121V267.983a24.363,24.363,0,0,0-24.362-24.362h-9.516c-7.189,36.844-43.042,64.965-86.128,64.965H233.7c-43.1,0-78.939-28.121-86.128-64.965h-82.6v24.362a8.121,8.121,0,0,1-8.121,8.121H8.121A8.121,8.121,0,0,1,0,267.983V105.569a8.121,8.121,0,0,1,8.121-8.121ZM332.948,24.362a8.121,8.121,0,0,0-8.121-8.121H162.414a8.121,8.121,0,1,0,0,16.241H324.827A8.121,8.121,0,0,0,332.948,24.362ZM251.741,48.724H235.5V81.207h16.241ZM389.793,267.983v24.362H471V235.5a89.434,89.434,0,0,0-89.328-89.328h-63.95l22.9,81.207h8.569A40.651,40.651,0,0,1,389.793,267.983ZM233.7,292.345h19.85c38.89,0,70.608-27.344,71.274-61.175L287.1,97.449H200.142L162.414,231.17c.674,33.831,32.392,61.175,71.282,61.175Zm-87.075-64.965,22.9-81.207H64.966v81.207ZM16.242,259.862H48.725V113.69H16.242Zm0,0" transform="translate(0 0)"/>
</svg>
